<svg width="22" height="21" viewBox="0 0 22 21" fill="none" xmlns="http://www.w3.org/2000/svg">
<path d="M5.50002 10H3.66668C3.18045 10 2.71414 9.80685 2.37032 9.46303C2.02651 9.11921 1.83335 8.6529 1.83335 8.16667V3.58333C1.83335 3.0971 2.02651 2.63079 2.37032 2.28697C2.71414 1.94315 3.18045 1.75 3.66668 1.75H18.3334C18.8196 1.75 19.2859 1.94315 19.6297 2.28697C19.9735 2.63079 20.1667 3.0971 20.1667 3.58333V8.16667C20.1667 8.6529 19.9735 9.11921 19.6297 9.46303C19.2859 9.80685 18.8196 10 18.3334 10H16.5M5.50002 6.33333H16.5M16.775 15.225C17.1629 15.6305 17.3885 16.1642 17.409 16.725C17.4296 17.2858 17.2437 17.8346 16.8866 18.2674C16.5294 18.7002 16.0259 18.987 15.4715 19.0733C14.917 19.1597 14.3502 19.0396 13.8784 18.7358C13.5716 18.5347 13.3169 18.2636 13.1353 17.9449C12.9536 17.6262 12.8501 17.269 12.8334 16.9025V10M6.05002 13.3C5.83341 13.5124 5.67289 13.7752 5.58284 14.0648C5.49279 14.3545 5.47603 14.662 5.53405 14.9598C5.59207 15.2575 5.72307 15.5362 5.9153 15.7709C6.10754 16.0055 6.35499 16.1888 6.63549 16.3043C6.91599 16.4198 7.22077 16.4639 7.5225 16.4327C7.82423 16.4014 8.11349 16.2957 8.36435 16.1252C8.6152 15.9546 8.81981 15.7245 8.95985 15.4554C9.09988 15.1863 9.17095 14.8867 9.16668 14.5833V10" stroke="#65AAF8" stroke-width="2" stroke-linecap="round" stroke-linejoin="round"/>
</svg>
