<svg width="16" height="17" viewBox="0 0 16 17" fill="none" xmlns="http://www.w3.org/2000/svg">
<path d="M7.67785 16.7087C5.6459 16.7087 3.91554 16.0059 2.48676 14.6004C1.05799 13.1948 0.343902 11.4837 0.344513 9.46706C0.344513 8.50456 0.531819 7.58422 0.90643 6.70606C1.28104 5.82789 1.81179 5.05239 2.49868 4.37956L6.39451 0.552474C6.57785 0.384418 6.78043 0.254557 7.00226 0.162891C7.2241 0.071224 7.44929 0.0253906 7.67785 0.0253906C7.9064 0.0253906 8.1319 0.071224 8.35435 0.162891C8.57679 0.254557 8.77907 0.384418 8.96118 0.552474L12.857 4.37956C13.5445 5.05178 14.0756 5.82728 14.4502 6.70606C14.8248 7.58484 15.0118 8.50517 15.0112 9.46706C15.0112 11.4837 14.2971 13.1948 12.8689 14.6004C11.4408 16.0059 9.7104 16.7087 7.67785 16.7087ZM7.67785 14.8754C9.20562 14.8754 10.5042 14.352 11.5737 13.3051C12.6431 12.2583 13.1778 10.9789 13.1778 9.46706C13.1778 8.749 13.0403 8.06547 12.7653 7.41647C12.4903 6.76747 12.0931 6.19822 11.5737 5.70872L7.67785 1.85872L3.78201 5.70872C3.26257 6.19761 2.86535 6.76686 2.59035 7.41647C2.31535 8.06608 2.17785 8.74961 2.17785 9.46706C2.17785 10.9796 2.71257 12.2592 3.78201 13.3061C4.85146 14.3529 6.15007 14.876 7.67785 14.8754Z" fill="#65AAF8"/>
</svg>
